<svg width="266" height="30" viewBox="0 0 266 30" fill="none" xmlns="http://www.w3.org/2000/svg">
<path d="M51.5248 17.1429L59.0088 21.4286L66.4929 17.1429L60.4481 13.6786V18.5714H57.5696V13.6786L51.5248 17.1429ZM57.5696 10.3929V9.78571C56.5141 9.47619 55.6506 8.88667 54.979 8.01714C54.3073 7.14762 53.9715 6.14191 53.9715 5C53.9715 3.61905 54.4632 2.44048 55.4467 1.46429C56.4302 0.488095 57.6176 0 59.0088 0C60.4001 0 61.5875 0.488095 62.5709 1.46429C63.5544 2.44048 64.0462 3.61905 64.0462 5C64.0462 6.14286 63.7103 7.14905 63.0387 8.01857C62.3671 8.8881 61.5035 9.47714 60.4481 9.78571V10.3929L70.5228 16.1429C70.9785 16.4048 71.3326 16.7562 71.5849 17.1971C71.8373 17.6381 71.963 18.12 71.962 18.6429V21.3571C71.962 21.881 71.8363 22.3633 71.5849 22.8043C71.3335 23.2452 70.9795 23.5962 70.5228 23.8571L60.4481 29.6071C59.9923 29.8691 59.5126 30 59.0088 30C58.5051 30 58.0253 29.8691 57.5696 29.6071L47.4949 23.8571C47.0392 23.5952 46.6856 23.2443 46.4342 22.8043C46.1828 22.3643 46.0566 21.8819 46.0557 21.3571V18.6429C46.0557 18.119 46.1818 17.6371 46.4342 17.1971C46.6865 16.7571 47.0401 16.4057 47.4949 16.1429L57.5696 10.3929ZM57.5696 23.8929L48.9342 18.9643V21.3571L59.0088 27.1429L69.0835 21.3571V18.9643L60.4481 23.8929C59.9923 24.1548 59.5126 24.2857 59.0088 24.2857C58.5051 24.2857 58.0253 24.1548 57.5696 23.8929ZM59.0088 7.14286C59.6085 7.14286 60.1185 6.93476 60.5387 6.51857C60.959 6.10238 61.1686 5.59619 61.1677 5C61.1677 4.40476 60.958 3.89905 60.5387 3.48286C60.1194 3.06667 59.6095 2.8581 59.0088 2.85714C58.4091 2.85714 57.8997 3.06571 57.4804 3.48286C57.0611 3.9 56.8509 4.40571 56.85 5C56.85 5.59524 57.0601 6.10143 57.4804 6.51857C57.9006 6.93572 58.4101 7.14381 59.0088 7.14286Z" fill="#40BCF4"/>
<path d="M28.4969 17.1429L35.981 21.4286L43.465 17.1429L37.4202 13.6786V18.5714H34.5418V13.6786L28.4969 17.1429ZM34.5418 10.3929V9.78571C33.4863 9.47619 32.6228 8.88667 31.9511 8.01714C31.2795 7.14762 30.9437 6.14191 30.9437 5C30.9437 3.61905 31.4354 2.44048 32.4189 1.46429C33.4024 0.488095 34.5897 0 35.981 0C37.3723 0 38.5596 0.488095 39.5431 1.46429C40.5266 2.44048 41.0183 3.61905 41.0183 5C41.0183 6.14286 40.6825 7.14905 40.0109 8.01857C39.3392 8.8881 38.4757 9.47714 37.4202 9.78571V10.3929L47.4949 16.1429C47.9507 16.4048 48.3047 16.7562 48.5571 17.1971C48.8094 17.6381 48.9351 18.12 48.9342 18.6429V21.3571C48.9342 21.881 48.8085 22.3633 48.5571 22.8043C48.3057 23.2452 47.9516 23.5962 47.4949 23.8571L37.4202 29.6071C36.9645 29.8691 36.4847 30 35.981 30C35.4773 30 34.9975 29.8691 34.5418 29.6071L24.4671 23.8571C24.0113 23.5952 23.6577 23.2443 23.4064 22.8043C23.155 22.3643 23.0288 21.8819 23.0278 21.3571V18.6429C23.0278 18.119 23.154 17.6371 23.4064 17.1971C23.6587 16.7571 24.0123 16.4057 24.4671 16.1429L34.5418 10.3929ZM34.5418 23.8929L25.9063 18.9643V21.3571L35.981 27.1429L46.0557 21.3571V18.9643L37.4202 23.8929C36.9645 24.1548 36.4847 24.2857 35.981 24.2857C35.4773 24.2857 34.9975 24.1548 34.5418 23.8929ZM35.981 7.14286C36.5807 7.14286 37.0906 6.93476 37.5109 6.51857C37.9312 6.10238 38.1408 5.59619 38.1399 5C38.1399 4.40476 37.9302 3.89905 37.5109 3.48286C37.0916 3.06667 36.5816 2.8581 35.981 2.85714C35.3813 2.85714 34.8718 3.06571 34.4525 3.48286C34.0332 3.9 33.8231 4.40571 33.8221 5C33.8221 5.59524 34.0323 6.10143 34.4525 6.51857C34.8728 6.93572 35.3823 7.14381 35.981 7.14286Z" fill="#00E054"/>
<path d="M5.46911 17.1429L12.9532 21.4286L20.4372 17.1429L14.3924 13.6786V18.5714H11.5139V13.6786L5.46911 17.1429ZM11.5139 10.3929V9.78571C10.4585 9.47619 9.59493 8.88667 8.92329 8.01714C8.25164 7.14762 7.91582 6.14191 7.91582 5C7.91582 3.61905 8.40756 2.44048 9.39104 1.46429C10.3745 0.488095 11.5619 0 12.9532 0C14.3444 0 15.5318 0.488095 16.5153 1.46429C17.4988 2.44048 17.9905 3.61905 17.9905 5C17.9905 6.14286 17.6547 7.14905 16.983 8.01857C16.3114 8.8881 15.4478 9.47714 14.3924 9.78571V10.3929L24.4671 16.1429C24.9228 16.4048 25.2769 16.7562 25.5292 17.1971C25.7816 17.6381 25.9073 18.12 25.9063 18.6429V21.3571C25.9063 21.881 25.7806 22.3633 25.5292 22.8043C25.2778 23.2452 24.9238 23.5962 24.4671 23.8571L14.3924 29.6071C13.9366 29.8691 13.4569 30 12.9532 30C12.4494 30 11.9697 29.8691 11.5139 29.6071L1.43924 23.8571C0.983481 23.5952 0.629907 23.2443 0.37852 22.8043C0.127133 22.3643 0.000959493 21.8819 0 21.3571V18.6429C0 18.119 0.126173 17.6371 0.37852 17.1971C0.630867 16.7571 0.98444 16.4057 1.43924 16.1429L11.5139 10.3929ZM11.5139 23.8929L2.87848 18.9643V21.3571L12.9532 27.1429L23.0278 21.3571V18.9643L14.3924 23.8929C13.9366 24.1548 13.4569 24.2857 12.9532 24.2857C12.4494 24.2857 11.9697 24.1548 11.5139 23.8929ZM12.9532 7.14286C13.5528 7.14286 14.0628 6.93476 14.4831 6.51857C14.9033 6.10238 15.113 5.59619 15.112 5C15.112 4.40476 14.9024 3.89905 14.4831 3.48286C14.0638 3.06667 13.5538 2.8581 12.9532 2.85714C12.3535 2.85714 11.844 3.06571 11.4247 3.48286C11.0054 3.9 10.7953 4.40571 10.7943 5C10.7943 5.59524 11.0044 6.10143 11.4247 6.51857C11.8449 6.93572 12.3544 7.14381 12.9532 7.14286Z" fill="#FF8000"/>
<path d="M88.7851 26.2698C86.1198 26.2698 84.1582 25.4444 82.9002 23.7937C81.6422 22.1217 81.0132 19.4868 81.0132 15.8889V13.127C81.0132 9.55026 81.9194 6.90476 83.7318 5.19047C85.5442 3.45503 87.9962 2.5873 91.0879 2.5873C94.073 2.5873 96.3438 3.32804 97.9003 4.80952C99.4781 6.26984 100.299 8.40741 100.363 11.2222V11.381H94.4141V11.3492C94.3715 10.2275 94.0943 9.35979 93.5826 8.74603C93.0708 8.11111 92.2073 7.79365 90.9919 7.79365C89.6273 7.79365 88.6252 8.24868 87.9855 9.15873C87.3672 10.0476 87.058 11.455 87.058 13.381V15.6032C87.0367 17.6772 87.3352 19.127 87.9535 19.9524C88.5932 20.7778 89.5953 21.1905 90.96 21.1905C92.1114 21.1905 92.9749 20.8519 93.5506 20.1746C94.1476 19.4762 94.4674 18.619 94.5101 17.6032H90.5122V13.6349H100.331V25.7937H95.6615L95.1817 20.5238C95.0112 21.582 94.67 22.5556 94.1583 23.4444C93.6679 24.3122 92.9856 25 92.1114 25.5079C91.2371 26.0159 90.1284 26.2698 88.7851 26.2698Z" fill="white"/>
<path d="M108.382 26.2698C106.356 26.2698 104.853 25.8254 103.872 24.9365C102.891 24.0476 102.401 22.8413 102.401 21.3175C102.401 20.1958 102.614 19.2751 103.04 18.5556C103.488 17.8148 104.074 17.2116 104.799 16.746C105.311 16.4286 105.823 16.1852 106.335 16.0159C106.846 15.8254 107.443 15.6667 108.126 15.5397C108.808 15.3915 109.65 15.2434 110.652 15.0952C112.06 14.9048 113.072 14.6931 113.691 14.4603C114.309 14.2275 114.618 13.8254 114.618 13.254C114.618 12.7037 114.426 12.2698 114.043 11.9524C113.68 11.6138 112.998 11.4444 111.996 11.4444C109.991 11.4444 108.957 12.3333 108.893 14.1111H102.976C103.126 11.9735 103.936 10.2593 105.407 8.96825C106.9 7.65609 109.096 7 111.996 7C114.043 7 115.674 7.2963 116.889 7.88889C118.126 8.46032 119.011 9.27513 119.544 10.3333C120.077 11.3915 120.343 12.6296 120.343 14.0476V25.7937H115.546L114.874 22.746C114.362 23.7619 113.584 24.6085 112.539 25.2857C111.495 25.9418 110.109 26.2698 108.382 26.2698ZM110.748 22.0476C111.537 22.0476 112.219 21.8677 112.795 21.5079C113.371 21.1481 113.819 20.6931 114.138 20.1429C114.48 19.5714 114.65 18.9894 114.65 18.3968V17.2857C114.373 17.4974 114.021 17.6667 113.595 17.7937C113.19 17.9206 112.71 18.037 112.156 18.1429C111.367 18.291 110.77 18.418 110.364 18.5238C109.981 18.6296 109.64 18.7778 109.341 18.9683C109.106 19.1799 108.915 19.4021 108.765 19.6349C108.637 19.8466 108.573 20.1111 108.573 20.4286C108.573 21.5079 109.298 22.0476 110.748 22.0476Z" fill="white"/>
<path d="M123.379 25.7937V7.38095H128.24L128.752 10.3016C129.242 9.28571 129.946 8.48148 130.863 7.88889C131.779 7.2963 132.899 7 134.221 7C135.649 7 136.811 7.2963 137.707 7.88889C138.624 8.46032 139.285 9.28572 139.69 10.3651C140.18 9.32804 140.884 8.51323 141.801 7.92063C142.739 7.30688 143.89 7 145.255 7C147.302 7 148.848 7.61376 149.893 8.84127C150.937 10.0476 151.46 11.7619 151.46 13.9841V25.7937H145.639V15.6984C145.639 14.5767 145.458 13.6772 145.095 13C144.733 12.3228 144.04 11.9841 143.016 11.9841C142.014 11.9841 141.321 12.3333 140.937 13.0317C140.554 13.7302 140.362 14.6402 140.362 15.7619V25.7937H134.509V15.6349C134.509 14.5767 134.338 13.709 133.997 13.0317C133.656 12.3333 132.984 11.9841 131.982 11.9841C130.98 11.9841 130.266 12.3545 129.839 13.0952C129.434 13.836 129.231 14.8201 129.231 16.0476V25.7937H123.379Z" fill="white"/>
<path d="M163.25 26.2381C160.03 26.2381 157.653 25.4127 156.118 23.7619C154.582 22.1111 153.815 19.8677 153.815 17.0317V16.4921C153.815 14.5238 154.209 12.8413 154.998 11.4444C155.787 10.0265 156.885 8.93651 158.292 8.1746C159.721 7.39153 161.395 7 163.314 7C165.51 7 167.29 7.42328 168.655 8.26984C170.041 9.1164 171.054 10.2381 171.693 11.6349C172.354 13.0106 172.685 14.5344 172.685 16.2063V18.2698H159.604C159.902 20.5556 161.171 21.6984 163.41 21.6984C164.22 21.6984 164.86 21.5397 165.329 21.2222C165.819 20.9048 166.171 20.4815 166.384 19.9524V19.9841H172.525C172.013 21.9101 171.011 23.4339 169.518 24.5556C168.026 25.6773 165.936 26.2381 163.25 26.2381ZM163.41 11.381C161.256 11.381 159.988 12.4709 159.604 14.6508H166.928C166.8 13.6349 166.448 12.8413 165.872 12.2698C165.318 11.6772 164.497 11.381 163.41 11.381ZM172.557 19.9524V19.9841H172.525L172.557 19.9524Z" fill="white"/>
<path d="M175.101 25.7937V7.38095H179.771L180.538 11.2222C180.858 9.78307 181.487 8.74603 182.425 8.11111C183.385 7.45503 184.707 7.12698 186.391 7.12698H187.447V13.1905H185.272C184.142 13.1905 183.268 13.3386 182.649 13.6349C182.052 13.9101 181.636 14.3757 181.402 15.0317C181.167 15.6667 181.05 16.5344 181.05 17.6349V25.7937H175.101Z" fill="white"/>
<path d="M200.597 26.2381C199.19 26.2381 198.028 25.9206 197.111 25.2857C196.194 24.6296 195.501 23.7725 195.032 22.7143L194.616 25.7937H189.531V1.85714H195.288V10.3651C195.779 9.30688 196.482 8.48148 197.399 7.88889C198.316 7.2963 199.425 7 200.725 7C202.111 7 203.348 7.32804 204.435 7.98413C205.523 8.64021 206.376 9.63492 206.994 10.9683C207.634 12.3016 207.953 14.0053 207.953 16.0794V16.6508C207.953 19.7831 207.292 22.164 205.97 23.7937C204.67 25.4233 202.879 26.2381 200.597 26.2381ZM198.71 21.2222C199.776 21.2222 200.619 20.8624 201.237 20.1429C201.855 19.4021 202.164 18.2275 202.164 16.619V16.2063C202.164 14.7249 201.845 13.6243 201.205 12.9048C200.565 12.164 199.744 11.7937 198.742 11.7937C197.697 11.7937 196.834 12.1746 196.152 12.9365C195.491 13.6984 195.16 14.7566 195.16 16.1111V16.5238C195.16 18.1323 195.491 19.3175 196.152 20.0794C196.813 20.8413 197.666 21.2222 198.71 21.2222Z" fill="white"/>
<path d="M219.374 26.2381C216.368 26.2381 214.054 25.4762 212.434 23.9524C210.835 22.4074 210.035 20.1005 210.035 17.0317V16.4603C210.035 14.3651 210.43 12.619 211.218 11.2222C212.029 9.8254 213.137 8.77778 214.545 8.07936C215.973 7.35979 217.594 7 219.406 7C221.261 7 222.892 7.35979 224.3 8.07936C225.707 8.79894 226.794 9.86772 227.562 11.2857C228.351 12.6825 228.745 14.4074 228.745 16.4603V17.0317C228.745 19.0635 228.351 20.7672 227.562 22.1429C226.794 23.4974 225.707 24.5238 224.3 25.2222C222.914 25.8995 221.272 26.2381 219.374 26.2381ZM219.406 21.3175C220.472 21.3175 221.325 20.9577 221.965 20.2381C222.626 19.4974 222.956 18.4074 222.956 16.9683V16.4603C222.956 14.9577 222.647 13.8254 222.029 13.0635C221.432 12.2804 220.568 11.8889 219.438 11.8889C218.351 11.8889 217.476 12.2698 216.815 13.0317C216.154 13.7725 215.824 14.9153 215.824 16.4603V16.9683C215.824 18.3862 216.154 19.4656 216.815 20.2064C217.476 20.9471 218.34 21.3175 219.406 21.3175Z" fill="white"/>
<path d="M228.068 25.7937L234.912 16.2063L228.707 7.38095H235.296L238.302 12.0476L241.341 7.38095H247.929L241.725 16.1746L248.345 25.7937H241.693L238.302 20.5873L234.912 25.7937H228.068Z" fill="white"/>
<path d="M254.87 26.1429C252.631 26.1429 250.851 25.3492 249.529 23.7619C248.228 22.1534 247.578 19.7725 247.578 16.619V16.0794C247.578 14.0053 247.887 12.3016 248.505 10.9683C249.145 9.63492 250.019 8.65079 251.128 8.01587C252.237 7.35979 253.495 7.03175 254.902 7.03175C256.245 7.03175 257.354 7.2963 258.228 7.8254C259.124 8.3545 259.806 9.09524 260.275 10.0476V1.85714H266V25.7937H261.043L260.467 22.5873C260.019 23.6667 259.326 24.5344 258.388 25.1905C257.471 25.8254 256.298 26.1429 254.87 26.1429ZM256.789 21.2222C257.855 21.2222 258.708 20.8413 259.348 20.0794C260.008 19.3175 260.339 18.1534 260.339 16.5873V16.1746C260.339 14.7989 260.019 13.7302 259.38 12.9683C258.761 12.1852 257.93 11.7937 256.885 11.7937C255.797 11.7937 254.945 12.164 254.326 12.9048C253.729 13.6455 253.431 14.7355 253.431 16.1746V16.5873C253.431 18.2381 253.74 19.4233 254.358 20.1429C254.998 20.8624 255.808 21.2222 256.789 21.2222Z" fill="white"/>
</svg>
