<svg width="72" height="30" viewBox="0 0 72 30" fill="none" xmlns="http://www.w3.org/2000/svg">
<path d="M51.552 17.1429L59.04 21.4286L66.528 17.1429L60.48 13.6786V18.5714H57.6V13.6786L51.552 17.1429ZM57.6 10.3929V9.78571C56.544 9.47619 55.68 8.88667 55.008 8.01714C54.336 7.14762 54 6.14191 54 5C54 3.61905 54.492 2.44048 55.476 1.46429C56.46 0.488095 57.648 0 59.04 0C60.432 0 61.62 0.488095 62.604 1.46429C63.588 2.44048 64.08 3.61905 64.08 5C64.08 6.14286 63.744 7.14905 63.072 8.01857C62.4 8.8881 61.536 9.47714 60.48 9.78571V10.3929L70.56 16.1429C71.016 16.4048 71.3702 16.7562 71.6227 17.1971C71.8752 17.6381 72.001 18.12 72 18.6429V21.3571C72 21.881 71.8742 22.3633 71.6227 22.8043C71.3712 23.2452 71.017 23.5962 70.56 23.8571L60.48 29.6071C60.024 29.8691 59.544 30 59.04 30C58.536 30 58.056 29.8691 57.6 29.6071L47.52 23.8571C47.064 23.5952 46.7102 23.2443 46.4587 22.8043C46.2072 22.3643 46.081 21.8819 46.08 21.3571V18.6429C46.08 18.119 46.2062 17.6371 46.4587 17.1971C46.7112 16.7571 47.065 16.4057 47.52 16.1429L57.6 10.3929ZM57.6 23.8929L48.96 18.9643V21.3571L59.04 27.1429L69.12 21.3571V18.9643L60.48 23.8929C60.024 24.1548 59.544 24.2857 59.04 24.2857C58.536 24.2857 58.056 24.1548 57.6 23.8929ZM59.04 7.14286C59.64 7.14286 60.1502 6.93476 60.5707 6.51857C60.9912 6.10238 61.201 5.59619 61.2 5C61.2 4.40476 60.9902 3.89905 60.5707 3.48286C60.1512 3.06667 59.641 2.8581 59.04 2.85714C58.44 2.85714 57.9302 3.06571 57.5107 3.48286C57.0912 3.9 56.881 4.40571 56.88 5C56.88 5.59524 57.0902 6.10143 57.5107 6.51857C57.9312 6.93572 58.441 7.14381 59.04 7.14286Z" fill="#40BCF4"/>
<path d="M28.512 17.1429L36 21.4286L43.488 17.1429L37.44 13.6786V18.5714H34.56V13.6786L28.512 17.1429ZM34.56 10.3929V9.78571C33.504 9.47619 32.64 8.88667 31.968 8.01714C31.296 7.14762 30.96 6.14191 30.96 5C30.96 3.61905 31.452 2.44048 32.436 1.46429C33.42 0.488095 34.608 0 36 0C37.392 0 38.58 0.488095 39.564 1.46429C40.548 2.44048 41.04 3.61905 41.04 5C41.04 6.14286 40.704 7.14905 40.032 8.01857C39.36 8.8881 38.496 9.47714 37.44 9.78571V10.3929L47.52 16.1429C47.976 16.4048 48.3302 16.7562 48.5827 17.1971C48.8352 17.6381 48.961 18.12 48.96 18.6429V21.3571C48.96 21.881 48.8342 22.3633 48.5827 22.8043C48.3312 23.2452 47.977 23.5962 47.52 23.8571L37.44 29.6071C36.984 29.8691 36.504 30 36 30C35.496 30 35.016 29.8691 34.56 29.6071L24.48 23.8571C24.024 23.5952 23.6702 23.2443 23.4187 22.8043C23.1672 22.3643 23.041 21.8819 23.04 21.3571V18.6429C23.04 18.119 23.1662 17.6371 23.4187 17.1971C23.6712 16.7571 24.025 16.4057 24.48 16.1429L34.56 10.3929ZM34.56 23.8929L25.92 18.9643V21.3571L36 27.1429L46.08 21.3571V18.9643L37.44 23.8929C36.984 24.1548 36.504 24.2857 36 24.2857C35.496 24.2857 35.016 24.1548 34.56 23.8929ZM36 7.14286C36.6 7.14286 37.1102 6.93476 37.5307 6.51857C37.9512 6.10238 38.161 5.59619 38.16 5C38.16 4.40476 37.9502 3.89905 37.5307 3.48286C37.1112 3.06667 36.601 2.8581 36 2.85714C35.4 2.85714 34.8902 3.06571 34.4707 3.48286C34.0512 3.9 33.841 4.40571 33.84 5C33.84 5.59524 34.0502 6.10143 34.4707 6.51857C34.8912 6.93572 35.401 7.14381 36 7.14286Z" fill="#00E054"/>
<path d="M5.472 17.1429L12.96 21.4286L20.448 17.1429L14.4 13.6786V18.5714H11.52V13.6786L5.472 17.1429ZM11.52 10.3929V9.78571C10.464 9.47619 9.6 8.88667 8.928 8.01714C8.256 7.14762 7.92 6.14191 7.92 5C7.92 3.61905 8.412 2.44048 9.396 1.46429C10.38 0.488095 11.568 0 12.96 0C14.352 0 15.54 0.488095 16.524 1.46429C17.508 2.44048 18 3.61905 18 5C18 6.14286 17.664 7.14905 16.992 8.01857C16.32 8.8881 15.456 9.47714 14.4 9.78571V10.3929L24.48 16.1429C24.936 16.4048 25.2902 16.7562 25.5427 17.1971C25.7952 17.6381 25.921 18.12 25.92 18.6429V21.3571C25.92 21.881 25.7942 22.3633 25.5427 22.8043C25.2912 23.2452 24.937 23.5962 24.48 23.8571L14.4 29.6071C13.944 29.8691 13.464 30 12.96 30C12.456 30 11.976 29.8691 11.52 29.6071L1.44 23.8571C0.984 23.5952 0.63024 23.2443 0.37872 22.8043C0.1272 22.3643 0.00096 21.8819 0 21.3571V18.6429C0 18.119 0.12624 17.6371 0.37872 17.1971C0.6312 16.7571 0.98496 16.4057 1.44 16.1429L11.52 10.3929ZM11.52 23.8929L2.88 18.9643V21.3571L12.96 27.1429L23.04 21.3571V18.9643L14.4 23.8929C13.944 24.1548 13.464 24.2857 12.96 24.2857C12.456 24.2857 11.976 24.1548 11.52 23.8929ZM12.96 7.14286C13.56 7.14286 14.0702 6.93476 14.4907 6.51857C14.9112 6.10238 15.121 5.59619 15.12 5C15.12 4.40476 14.9102 3.89905 14.4907 3.48286C14.0712 3.06667 13.561 2.8581 12.96 2.85714C12.36 2.85714 11.8502 3.06571 11.4307 3.48286C11.0112 3.9 10.801 4.40571 10.8 5C10.8 5.59524 11.0102 6.10143 11.4307 6.51857C11.8512 6.93572 12.361 7.14381 12.96 7.14286Z" fill="#FF8000"/>
</svg>
